<svg id="Calque_1" data-name="Calque 1" xmlns="http://www.w3.org/2000/svg" viewBox="0 0 3000 1000"><title>Sans titre - 1</title><path d="M223.71,390.37C505.24,390.37,505.24,561,786.79,561s281.54-170.66,563.08-170.66S1631.44,561,1913,561s281.55-170.66,563.12-170.66" style="fill:none;stroke:#14a1b8;stroke-miterlimit:10;stroke-width:4px;stroke-dasharray:12,0"/><polygon points="2476.12 354.06 2539 390.37 2476.12 426.68 2476.12 354.06" style="fill:#14a1b8"/><path d="M2631.77,371.94a2.19,2.19,0,0,1-2.37-1.77,38.63,38.63,0,0,1-.22-5.55v-8.7c0-1.63.08-3.51.24-5.63s.24-5.16.24-9.1l0-1v-2l0-1c0-.64,0-1.27,0-1.88l-.07-.93-.11-1.78c0-.79-.08-1.91-.08-3.37,0-2.81.71-4.52,2.11-5.14a44.26,44.26,0,0,1,7.57-1.48,82.33,82.33,0,0,1,12-.93h2a8.41,8.41,0,0,1,3.53.56,2,2,0,0,1,1.13,1.89c0,.88-.9,1.54-2.7,2-.67.15-3.14.44-7.42.89s-6.89.92-7.81,1.42a4.35,4.35,0,0,0-1.95,3,28,28,0,0,0-.55,6.41q0,4.2,1.5,5.2t6.6,1.22a30,30,0,0,1,7,.85,2.34,2.34,0,0,1,1.89,2.29,2.23,2.23,0,0,1-1.67,2.26,20,20,0,0,1-3,.58c-1.61.23-3,.45-4.09.64q-4.84.93-6.73,2.87t-2.85,7.57c-.1.62-.29,2-.56,4.15a26.75,26.75,0,0,1-.77,4.29A2.78,2.78,0,0,1,2631.77,371.94Z" style="fill:#14a1b8"/><path d="M2696.15,366.17q0,5.63-3.41,5.63a5.17,5.17,0,0,1-2.81-.8,4.15,4.15,0,0,0-2-.79,8.29,8.29,0,0,0-2.57.74c-1.24.49-2.5.93-3.8,1.33a18.21,18.21,0,0,1-5.12.59q-6.23,0-8.81-4.11t-2.59-12.92V352l0-.92v-1.89l0-1.92.07-4.7a7.1,7.1,0,0,1,.56-3.37c.37-.62,1.23-.93,2.59-.93s2.31.79,2.85,2.37q.59,1.74.59,8.74l-.15,7.73q0,5.92,1.47,8.7t5.46,2.78a7.78,7.78,0,0,0,4.6-1.63,11.21,11.21,0,0,0,3.5-4.18q1.26-2.56,1.89-10.5t1-9.75c.37-1.83,1.26-2.74,2.66-2.74s2.26,1.09,2.56,3.26a157.24,157.24,0,0,1,1.26,20.73Z" style="fill:#14a1b8"/><path d="M2704.25,340.45v-.52a3.25,3.25,0,0,1,1.52-2.93,10.92,10.92,0,0,0,2.78-2.09,15.9,15.9,0,0,0,.66-3.22,22,22,0,0,1,1.13-4.59c.48-1.24,1.17-1.87,2.06-1.87h.55a2.05,2.05,0,0,1,2,1.17,16.56,16.56,0,0,1,1,4.22,11,11,0,0,0,1.09,4.05c.44.67,1.67,1.41,3.66,2.24s3,1.62,3,2.39v.29c0,.57-.95,1.2-2.85,1.87a5.82,5.82,0,0,0-3.7,3.06q-1.92,4.59-1.92,13.4c0,3.33.46,5.68,1.38,7.07a6.51,6.51,0,0,0,4.22,2.68c1.89.41,2.84,1.3,2.84,2.68a2.65,2.65,0,0,1-1.24,2.19,5.35,5.35,0,0,1-3.17.89h-.66a9,9,0,0,1-5.3-1.6,9.56,9.56,0,0,1-3.44-4.42q-1.15-2.84-1.55-11a86.13,86.13,0,0,0-.91-10.44,7.35,7.35,0,0,0-1.32-3.18A11.44,11.44,0,0,1,2704.25,340.45Z" style="fill:#14a1b8"/><path d="M2763.66,366.17q0,5.63-3.4,5.63a5.18,5.18,0,0,1-2.82-.8,4.15,4.15,0,0,0-2-.79,8.36,8.36,0,0,0-2.57.74c-1.23.49-2.5.93-3.79,1.33a18.34,18.34,0,0,1-5.13.59q-6.21,0-8.81-4.11t-2.59-12.92V352l0-.92v-1.89l0-1.92.08-4.7a7.13,7.13,0,0,1,.55-3.37c.37-.62,1.24-.93,2.59-.93s2.31.79,2.85,2.37q.6,1.74.6,8.74l-.15,7.73q0,5.92,1.46,8.7t5.46,2.78a7.79,7.79,0,0,0,4.61-1.63,11.3,11.3,0,0,0,3.5-4.18q1.26-2.56,1.88-10.5c.42-5.29.76-8.54,1-9.75.37-1.83,1.26-2.74,2.67-2.74s2.26,1.09,2.55,3.26a157.24,157.24,0,0,1,1.26,20.73Z" style="fill:#14a1b8"/><path d="M2773.54,344.22a7.91,7.91,0,0,1,.73-3.92,2.43,2.43,0,0,1,2.24-1.19,6,6,0,0,1,3.22,1.11,6.25,6.25,0,0,0,2.16,1.11,15.22,15.22,0,0,0,3.37-1.51,11.55,11.55,0,0,1,5.22-1.52,5.27,5.27,0,0,1,3.44.94,2.71,2.71,0,0,1,1.13,2.06v.4a2.13,2.13,0,0,1-1.07,2,21.88,21.88,0,0,1-2.69.48,15.54,15.54,0,0,0-4.36,1.24,8,8,0,0,0-3.24,2.9q-2.52,3.78-2.52,14.88l-.11,2.93a12.54,12.54,0,0,1-.87,5.38,3.36,3.36,0,0,1-3.31,1.72A2.53,2.53,0,0,1,2774,371a63.53,63.53,0,0,1-.19-6.92v-7.41l0-.59v-1.26l-.11-4.22,0-.59-.12-4.7Z" style="fill:#14a1b8"/><path d="M2816.55,374.09H2815a14.33,14.33,0,0,1-5.93-1.33,13.93,13.93,0,0,1-7.66-9,22.41,22.41,0,0,1-1.11-7v-1.63a19.86,19.86,0,0,1,1.44-7.07,16.21,16.21,0,0,1,8.85-9.66,17.67,17.67,0,0,1,7-1.41h.78a11,11,0,0,1,8.29,3.26,11.52,11.52,0,0,1,3.14,8.33v.77c0,2.5-.91,4.26-2.74,5.3q-1.8,1-9.14,2.49t-7.55,1.54c-1.43.52-2.15,1.19-2.15,2a6.54,6.54,0,0,0,2.47,5,9.52,9.52,0,0,0,6.57,2.19,25.39,25.39,0,0,0,6-1,26.44,26.44,0,0,1,4.8-1c1.11,0,1.66.65,1.66,2s-1.37,2.67-4.12,4.07A19.36,19.36,0,0,1,2816.55,374.09Zm-.3-21.47a12.88,12.88,0,0,0,6.33-1.44,2.62,2.62,0,0,0,1.18-2.52v-.89a5.59,5.59,0,0,1-.07-.7,4.57,4.57,0,0,0-1.91-3.74,6.87,6.87,0,0,0-4.31-1.48h-.26l-.22,0h-.52a4.29,4.29,0,0,1-.7.07q-2.92,0-5.55,3a9.51,9.51,0,0,0-2.63,6.44v.41c0,.92.7,1.37,2.11,1.37H2811l.22,0,1.89-.14c.3,0,.65-.1,1.06-.13l1.22-.13C2815.82,352.65,2816.1,352.62,2816.25,352.62Z" style="fill:#14a1b8"/><path d="M2551.21,417.53c0-3.06,1.6-4.59,4.78-4.59h1.22a3.71,3.71,0,0,1,2.93,1.45,5.1,5.1,0,0,1,1.22,3.4v.56c0,.07-.13.91-.37,2.51l-.19,1a57.54,57.54,0,0,0-.52,8l-.07,1.37,0,2v4.81l0,2v1.33l0,.67v4.55l-.11,4.37v1.22a19.41,19.41,0,0,0,.44,4,18.7,18.7,0,0,1,.45,4,4.26,4.26,0,0,1-1.13,3,4.39,4.39,0,0,1-3.32,1.19h-.59q-4.74,0-4.74-4.74v-.63a17,17,0,0,1,.71-3.89q1.36-4.77,1.37-17v-.66l.07-2v-2l-.07-2-.08-2.55a24.21,24.21,0,0,0-.94-7.13A17.3,17.3,0,0,1,2551.21,417.53Z" style="fill:#14a1b8"/><path d="M2572.2,437.3a8.37,8.37,0,0,1,3.83-7q3.82-2.79,10-2.8a16.13,16.13,0,0,1,6.7,1.34c2,.89,3,1.86,3,2.92a2,2,0,0,1-2.26,2.19,23.62,23.62,0,0,1-3.09-.74,16.74,16.74,0,0,0-4.16-.75,9.83,9.83,0,0,0-5.55,1.3,4,4,0,0,0-1.89,3.5A4.52,4.52,0,0,0,2581,441a42.21,42.21,0,0,0,6.31,2.66,27.46,27.46,0,0,1,7.16,3.48,8.3,8.3,0,0,1,3.41,6.51v.89a9,9,0,0,1-3.91,7.59q-3.9,2.9-10.16,2.89a20.4,20.4,0,0,1-8.16-1.63q-3.79-1.64-3.79-4c0-1.56.82-2.33,2.48-2.33,0,0,1.23.38,3.62,1.16a21.43,21.43,0,0,0,6.57,1.17,7.67,7.67,0,0,0,4.76-1.35,4.85,4.85,0,0,0,1.78-4.13q0-1.89-2.78-3.55a46.61,46.61,0,0,0-6.33-2.67q-5-1.84-6.92-3.63A8.93,8.93,0,0,1,2572.2,437.3Z" style="fill:#14a1b8"/><path d="M2659.15,459.43a3.08,3.08,0,0,1,.85,2.41,2,2,0,0,1-1.19,2.14q-1.77.7-7.14.71h-5.92l-.85,0q-12.37,0-14-1.15c-1.08-.76-1.62-3.75-1.62-8.95V450.4l0-.81.11-5.85v-5l0-2.48q0-20.33.11-21.06c.22-1.53,1.22-2.3,3-2.3a4,4,0,0,1,2.57.67,3.52,3.52,0,0,1,1,2.22q.24,1.56.24,19.86t1.26,20.89a3.91,3.91,0,0,0,3.09,1.95,48.57,48.57,0,0,0,7.64.42l7.59-.22A5,5,0,0,1,2659.15,459.43Z" style="fill:#14a1b8"/><path d="M2680.38,427.93h1.15a13.73,13.73,0,0,1,10.95,4.67q4.08,4.66,4.08,13.62v.55q0,8.19-4.48,13.36a14,14,0,0,1-5.54,3.84,18.2,18.2,0,0,1-6.64,1.31h-.63a12.7,12.7,0,0,1-10.59-5q-3.33-4.25-3.33-12.25v-1.18q0-12.93,8.74-17.44A13.5,13.5,0,0,1,2680.38,427.93Zm-1,32.32h1.11a7.24,7.24,0,0,0,3.77-1.11q5-3,5-13.33V445q0-5.82-2.16-9.05a6.52,6.52,0,0,0-5.61-3.24h-1.11c-2.39,0-4.48,1.21-6.25,3.62s-2.67,5.75-2.67,10v2.48c.05.54.07.94.07,1.18a11.28,11.28,0,0,0,2.37,7.29A6.94,6.94,0,0,0,2679.42,460.25Z" style="fill:#14a1b8"/><path d="M2732.5,454.1l.74,6.74q0,3.18-3.15,3.18a4.3,4.3,0,0,1-2.33-.91,5.17,5.17,0,0,0-1.65-.9c-.21,0-1.7.46-4.48,1.39a22.53,22.53,0,0,1-6.71,1.38h-.86a10.13,10.13,0,0,1-7.32-2.85q-3-2.85-3-8.23a10,10,0,0,1,4.3-8.53,16.59,16.59,0,0,1,8.14-2.89q8.1-.93,8.48-1.11c.69-.35,1-1.3,1-2.85q0-6.3-7.95-6.29a21.76,21.76,0,0,0-5.48,1c-2.37.66-3.64,1-3.82,1-1.3,0-2-.7-2-2.08s1.15-2.58,3.45-3.61a18.61,18.61,0,0,1,7.66-1.53h.85q11.73,0,13.36,10.21a85.37,85.37,0,0,1,.56,11.18l0,2.48Zm-21.95-1.89v1.71a5.86,5.86,0,0,0,1.9,4.57,7.35,7.35,0,0,0,5.13,1.72h.52a8,8,0,0,0,5.53-2.15,6.73,6.73,0,0,0,2.39-5.18l.07-.52.11-2.29v-1.26a2.5,2.5,0,0,0-1-2.26,7.41,7.41,0,0,0-3.7-.63H2721l-.3,0h-.81l-.82.07a9,9,0,0,1-1.37.11,7.62,7.62,0,0,0-5.16,1.72A5.52,5.52,0,0,0,2710.55,452.21Z" style="fill:#14a1b8"/><path d="M2773.73,458v1.37a3.47,3.47,0,0,1-.87,2.34,2.68,2.68,0,0,1-2.07,1,5.28,5.28,0,0,1-2.28-.52,4.17,4.17,0,0,0-1.68-.52,20.4,20.4,0,0,0-4,1.24,18.56,18.56,0,0,1-6.44,1.24q-6.37,0-10.07-4.11t-3.7-11.81v-1q0-8.37,4.63-13.85a14.47,14.47,0,0,1,5.25-4.07,17.16,17.16,0,0,1,6.89-1.26l4,.23a2.39,2.39,0,0,0,2.56-1.89,37.28,37.28,0,0,0,.81-9c0-4,1.24-6,3.7-6,1.19,0,2,.33,2.3,1s.52,2.53.52,5.61l-.08,2.56c0,.56,0,1.12,0,1.66l-.07,1.7c0,.57,0,1.14,0,1.71l0,.81c0,.57,0,1.14,0,1.7l-.07,1.71-.15,7.69q0,8.19.18,10.78l.08.77c0,.79.08,1.31.11,1.56l.07,1.52.08.77c.07,1,.16,2.06.27,3.22S2773.73,457.88,2773.73,458Zm-25.47-11.51v2.08l0,.4,0,.82c0,.27,0,.53,0,.77a10.29,10.29,0,0,0,2.27,6.63c1.52,1.9,3.15,2.85,4.91,2.85h1a7.1,7.1,0,0,0,6.31-3.18c1.42-2.12,2.13-5,2.13-8.74l.08-.78.11-3.14v-2.3l0-.4v-.74l-.11-1.52a6.61,6.61,0,0,0-1.57-4.63,6.15,6.15,0,0,0-4.72-1.7h-.71a8.63,8.63,0,0,0-6.9,3.63Q2748.26,440.19,2748.26,446.51Z" style="fill:#14a1b8"/><path d="M2788.76,464.58h-1.26c-1.23,0-2.07-.88-2.5-2.63a43.81,43.81,0,0,1-.65-9.14v-7.7l0-.45c0-8.9.05-13.61.15-14.1.25-1.23,1.16-1.85,2.74-1.85h.41c1.7,0,2.73.59,3.1,1.78a29.37,29.37,0,0,1,.23,5.18v5l0,.89v1.81l0,.89v.85l.07,1.3c0,.29,0,.9,0,1.81a32.87,32.87,0,0,0,.83,5.33,31.58,31.58,0,0,1,.83,5.37v1.18a5.24,5.24,0,0,1-.92,3.52A4.13,4.13,0,0,1,2788.76,464.58Zm-.85-43.38q-3.15,0-3.15-2.34l-.15-.92V417a5.07,5.07,0,0,0,.19-1.27,2.27,2.27,0,0,1,.83-1.37,3.72,3.72,0,0,1,2.72-.84h.67l.15,0,.88.11a.92.92,0,0,0,.26,0c1.46,0,2.19,1,2.19,3v1.07l-.15.89c0,1.61-.9,2.41-2.7,2.41a2,2,0,0,1-.37.07l-.67.08Z" style="fill:#14a1b8"/><path d="M2806.19,430.71a3.66,3.66,0,0,1,2.3.78l.81.85a2.22,2.22,0,0,0,1.35.85,21.54,21.54,0,0,0,4.31-1.89,15.92,15.92,0,0,1,7.07-1.89h.89a8.51,8.51,0,0,1,5.22,1.71,9,9,0,0,1,3.24,4.55,31.66,31.66,0,0,1,1.24,7.73l.07,1.89c0,1.21.1,2.14.15,2.78l.11,1.81q.15,2.07.58,6.09c.28,2.68.42,4.28.42,4.79,0,1.51-.86,2.26-2.59,2.26s-2.74-1.4-3.42-4.2a77.17,77.17,0,0,1-1.61-11.53q-.6-7.26-1.48-9.4A6,6,0,0,0,2819,434a7.85,7.85,0,0,0-4.18,1.26,8.3,8.3,0,0,0-3.18,3.74q-1.16,2.47-2,11.1t-1.13,9.7q-1,3.51-3.22,3.51c-1.68,0-2.52-1.19-2.52-3.59v-1.85l.07-1.88,0-2.85.22-8.59a53,53,0,0,1,1-11.81C2804.39,431.4,2805.11,430.71,2806.19,430.71Z" style="fill:#14a1b8"/><path d="M2846.61,433.78a11.62,11.62,0,0,1,4.7-3.74,14,14,0,0,1,5.59-1.22h1a19,19,0,0,1,5.93,1.19,31.12,31.12,0,0,0,5.1,1.4,3.42,3.42,0,0,1,2.52,1.59q1.29,2,1.3,17.92v2l0,1v2l0,1.93,0,.92.08,4.78q0,13.62-9.18,17.43a19.9,19.9,0,0,1-7.68,1.44,16.67,16.67,0,0,1-7.09-1.35c-1.93-.9-2.89-1.93-2.89-3.09s.82-1.74,2.44-1.74c.18,0,.85.06,2,.19a39.83,39.83,0,0,0,4,.18,11.7,11.7,0,0,0,7.83-2.9,9.33,9.33,0,0,0,3.38-7.39c0-1.77-.7-2.66-2.11-2.66l-3.62.22q-7.79,0-12.29-4.92c-3-3.28-4.52-7.54-4.52-12.75S2844.29,436.87,2846.61,433.78Zm2.07,16.92a10.94,10.94,0,0,0,2,6.71,6.06,6.06,0,0,0,5,2.76h1a7.6,7.6,0,0,0,6.07-2.79q2.37-2.81,2.37-8.94c.05-.54.07-.94.07-1.19l.08-1.55v-2.3l0-.37v-.77c-.05-.5-.07-.87-.07-1.11a7.78,7.78,0,0,0-1.56-5.2,5.42,5.42,0,0,0-4.4-1.84h-1a8.3,8.3,0,0,0-7,3.65,15.55,15.55,0,0,0-2.68,9.46v2.37C2848.66,450.08,2848.68,450.45,2848.68,450.7Z" style="fill:#14a1b8"/><path d="M2887.55,456.66h1.33l1,.14q2.37,0,2.37,2.82l.11.88v.93a3.91,3.91,0,0,1-.91,2.87,3.05,3.05,0,0,1-2.24.91l-.88.11h-.89a6.2,6.2,0,0,0-1.41-.23q-2.22,0-2.22-3.51v-.89l.15-1.15a2.78,2.78,0,0,1,.87-2A3.74,3.74,0,0,1,2887.55,456.66Z" style="fill:#14a1b8"/><path d="M2906.31,456.66h1.34l1,.14c1.57,0,2.36.94,2.36,2.82l.12.88v.93a4,4,0,0,1-.91,2.87,3.07,3.07,0,0,1-2.24.91l-.89.11h-.89a6.14,6.14,0,0,0-1.4-.23q-2.22,0-2.22-3.51v-.89l.14-1.15a2.78,2.78,0,0,1,.87-2A3.76,3.76,0,0,1,2906.31,456.66Z" style="fill:#14a1b8"/><path d="M2925.08,456.66h1.33l1,.14q2.37,0,2.37,2.82l.11.88v.93a3.91,3.91,0,0,1-.91,2.87,3,3,0,0,1-2.23.91l-.89.11H2925a6.12,6.12,0,0,0-1.41-.23q-2.22,0-2.22-3.51v-.89l.15-1.15a2.78,2.78,0,0,1,.87-2A3.76,3.76,0,0,1,2925.08,456.66Z" style="fill:#14a1b8"/><path d="M1620.29,387.82v-112a31,31,0,0,0-31-31H1117.12a31,31,0,0,0-31,31v112a31,31,0,0,0,31,31h24.73c51.58-25.71,127.15-41.93,211.36-41.93s159.77,16.22,211.36,41.93h24.72A31,31,0,0,0,1620.29,387.82Z" style="fill:#14a1b8"/><path d="M1050.32,566.86v112a31,31,0,0,1-31,31H547.15a31,31,0,0,1-31-31v-112a31,31,0,0,1,31-31h24.73c51.58,25.71,127.15,41.93,211.36,41.93S943,561.57,994.6,535.86h24.72A31,31,0,0,1,1050.32,566.86Z" style="fill:#14a1b8"/><path d="M2186.57,566.86v112a31,31,0,0,1-31,31H1683.4a31,31,0,0,1-31-31v-112a31,31,0,0,1,31-31h24.73c51.58,25.71,127.15,41.93,211.36,41.93s159.77-16.22,211.36-41.93h24.72A31,31,0,0,1,2186.57,566.86Z" style="fill:#14a1b8"/><path d="M747.32,637.09a2.26,2.26,0,0,1-2.1,2.49q-3.44.58-14.46.59l-2,0h-2.88c-2.18,0-3.57-.19-4.16-.57a1.93,1.93,0,0,1-.89-1.76v-.78c0-1.76,1.22-4.2,3.66-7.3a77.77,77.77,0,0,1,6.63-6.86,54.49,54.49,0,0,0,7-7.76,11.19,11.19,0,0,0,2.09-6.42,6.36,6.36,0,0,0-2.27-5.23,7,7,0,0,0-4.57-1.35,10.42,10.42,0,0,0-6.15,2.39c-2.14,1.59-3.6,2.39-4.36,2.39s-1.15-.77-1.15-2.33,1.32-3.2,4-5A16.15,16.15,0,0,1,734.9,597a11.46,11.46,0,0,1,8.36,3.08,10.44,10.44,0,0,1,3.15,7.82,14.68,14.68,0,0,1-2.26,8.22,63,63,0,0,1-8.6,9.51q-6.34,6-6.34,8.05,0,1.45,8,1.45l5.4-.13q3.2,0,3.93.78A2.15,2.15,0,0,1,747.32,637.09Z" style="fill:#fff"/><path d="M770.31,641h-1.26a11.4,11.4,0,0,1-9.93-5q-3.52-5-3.52-13.9v-3.3a35.65,35.65,0,0,1,1.1-8.7q2-8.19,7.6-11.45a12.21,12.21,0,0,1,6.21-1.81h1.87a10.79,10.79,0,0,1,5.5,1.55q7.83,4.56,7.83,18.82v.68a40.28,40.28,0,0,1-1,9.58q-2,8.31-7.53,11.61A13.3,13.3,0,0,1,770.31,641ZM761,621.09l.07,2.39a17.7,17.7,0,0,0,2.21,9.33c1.48,2.42,3.38,3.64,5.71,3.64h.45q4.5,0,7.08-4.61t2.59-13.21v-1.52l0-.49-.06-2.39a18.48,18.48,0,0,0-2-9.23q-2-3.59-5.47-3.58h-.84q-3.94,0-6.82,4.34a17.66,17.66,0,0,0-1.88,5,27.6,27.6,0,0,0-.9,6.94l-.07,1,0,2Z" style="fill:#fff"/><path d="M808.57,633.83V635a5.9,5.9,0,0,1-1.87,4.3,4.69,4.69,0,0,1-3.45,1.13,4.14,4.14,0,0,1-3.56-1.71,6,6,0,0,1-1.24-3.56,10.87,10.87,0,0,1,.86-4,24.24,24.24,0,0,0,1.26-4.35,63.08,63.08,0,0,0,.4-9.09q0-6.93-.68-9.07a3,3,0,0,0-3.22-2.16c-1.69,0-2.53-.65-2.53-2,0-1,.73-2,2.19-3q5.4-3.72,7.86-3.72h.46c1,0,1.69.65,2,1.95a34.35,34.35,0,0,1,.33,6.33l-.13,5-.07,1.27-.22,7.5,0,1.23,0,.64v1.23l0,1.23a18.41,18.41,0,0,0,.81,5.82l.45,1.33A10,10,0,0,1,808.57,633.83Z" style="fill:#fff"/><path d="M818.4,600.45v-.55a1.89,1.89,0,0,1,1.68-2,52.62,52.62,0,0,1,10.87-.78h5.3a17.9,17.9,0,0,1,6.42.8,2.74,2.74,0,0,1,1.83,2.7v.64q0,2-2.72,8.72c-1.81,4.47-2.82,6.93-3,7.36s-.43.9-.66,1.42l-.52,1.16q-.2.39-1.62,3.48t-3.56,9.48c-1.42,4.25-2.16,6.45-2.23,6.58-.58,1.31-1.33,2-2.26,2h-.68c-1.57,0-2.36-.86-2.36-2.59q0-3.23,5-16.94a78.28,78.28,0,0,1,4.46-9.71c1.92-3.58,2.88-6.16,2.88-7.76,0-.84-.59-1.43-1.78-1.78a31.13,31.13,0,0,0-7.08-.51l-7.34.25C819.27,602.42,818.4,601.77,818.4,600.45Z" style="fill:#fff"/><path d="M609.64,660.41h1.84q7.2,0,9.44,4.83a11.43,11.43,0,0,1,.73,4.6,9.46,9.46,0,0,1-2.44,6,4,4,0,0,0-.9,1.34c0,.18.29.46.92.84a11,11,0,0,1,3.49,3.35,7.93,7.93,0,0,1,1.35,4.41V687a9.56,9.56,0,0,1-1,4.47,10.14,10.14,0,0,1-6.77,5.25,25,25,0,0,1-6.6.79h-4.55a11.73,11.73,0,0,1-3.78-.53,2.13,2.13,0,0,1-1.44-1.7,87.73,87.73,0,0,1-.29-10.22V674.73l0-1.71v-1.71l-.13-6.07q0-3.12.87-3.78c.8-.61,2.9-.92,6.28-.92l1.18,0Zm-5.43,13.14c0,1.31.11,2.09.35,2.32a2.05,2.05,0,0,0,1.43.36h1.53l.23,0,.9-.05,1.1-.08a7.63,7.63,0,0,0,5.36-1.83,5.83,5.83,0,0,0,2-4.48v-.71a4.58,4.58,0,0,0-1.66-3.74,7.83,7.83,0,0,0-5-1.35H610l-.21,0h-.24c-2.91,0-4.51.31-4.81.91s-.44,2.58-.44,5.92l0,.45v.92l0,.92Zm.07,10.51v4.15c0,2.64.16,4.2.46,4.66s1.58.7,3.83.7h1.6q9.23,0,9.22-7.38l0-.29a6,6,0,0,0-1.94-4.65,7.06,7.06,0,0,0-5-1.79l-.55-.05h-2.63l-.26,0h-.52c-.36,0-.61.06-.77.06-1.52,0-2.47.24-2.83.73S604.28,682,604.28,684.06Z" style="fill:#fff"/><path d="M650,689.94l.52,4.78a2,2,0,0,1-2.23,2.26,3.09,3.09,0,0,1-1.66-.64,3.57,3.57,0,0,0-1.17-.64c-.14,0-1.2.33-3.17,1a16,16,0,0,1-4.77,1h-.61a7.2,7.2,0,0,1-5.2-2,7.71,7.71,0,0,1-2.1-5.84,7.1,7.1,0,0,1,3-6.06,11.91,11.91,0,0,1,5.78-2c3.83-.44,5.84-.7,6-.79.49-.24.74-.92.74-2q0-4.47-5.65-4.47a15.74,15.74,0,0,0-3.89.71c-1.68.48-2.58.71-2.71.71-.92,0-1.39-.49-1.39-1.47s.82-1.83,2.45-2.56a13.1,13.1,0,0,1,5.43-1.09H640q8.33,0,9.48,7.25a60,60,0,0,1,.4,7.94l0,1.76ZM634.4,688.6v1.21a4.18,4.18,0,0,0,1.35,3.25,5.23,5.23,0,0,0,3.64,1.22h.37a5.68,5.68,0,0,0,3.92-1.53,4.76,4.76,0,0,0,1.7-3.67l0-.37.08-1.63v-.89a1.8,1.8,0,0,0-.68-1.61,5.4,5.4,0,0,0-2.63-.44h-.39l-.21,0H641l-.58.05a6,6,0,0,1-1,.08,5.37,5.37,0,0,0-3.67,1.23A3.88,3.88,0,0,0,634.4,688.6Z" style="fill:#fff"/><path d="M667.55,697.59H667a9.64,9.64,0,0,1-7.7-3.26,12.41,12.41,0,0,1-2.81-8.43v-.61q0-9.43,6.51-12.61a11,11,0,0,1,4.89-1.16H669a7.8,7.8,0,0,1,4.47,1.4c1.36.93,2,1.89,2,2.89s-.61,1.49-1.82,1.49a3,3,0,0,1-1-.34,11.83,11.83,0,0,0-4.61-1.28,6.22,6.22,0,0,0-3.19.8,6.46,6.46,0,0,0-2.21,2c-1,1.47-1.47,3.64-1.47,6.49q0,8.49,7.41,8.49a12,12,0,0,0,3.52-.74l3.5-1.12a1,1,0,0,1,1.1,1.12v.4q0,1.54-3.7,3.26A13,13,0,0,1,667.55,697.59Z" style="fill:#fff"/><path d="M685.26,659.57a2.22,2.22,0,0,1,2.29,1.34q.35.84.34,6.44t1.05,5.59a4.54,4.54,0,0,0,.95-.15l.55-.16c.63-.19,1.19-.35,1.68-.46a17.22,17.22,0,0,1,3.16-.17q4.94,0,6.85,5,1.68,4.42,1.68,16.61a5,5,0,0,1-.36,2.13c-.25.49-.82.73-1.71.73s-1.38-.89-1.74-2.68c-.19-1-.38-3.46-.59-7.38a35.12,35.12,0,0,0-.85-7.46,7.58,7.58,0,0,0-4.13-3.23h0a5.73,5.73,0,0,0-5.38,3.44c-.56,1.08-1,3.61-1.24,7.57s-.49,6.38-.68,7.27c-.39,1.84-1.12,2.76-2.18,2.76a2.2,2.2,0,0,1-1.61-.52c-.35-.35-.52-1.24-.52-2.66v-.79l.05-1.62c0-1.11,0-1.94,0-2.5l.06-1.66c0-.56,0-1.1,0-1.63l.08-3.28,0-.81c0-.55,0-1.1,0-1.66l0-.84c0-.56,0-1.1,0-1.63l0-.84q0-.84,0-1.65l0-.82c0-.54,0-1.09,0-1.63l0-2.44a55.2,55.2,0,0,1,.37-8.44C683.88,660.15,684.42,659.57,685.26,659.57Z" style="fill:#fff"/><path d="M721.13,697.72H720a10.15,10.15,0,0,1-4.2-.94,9.87,9.87,0,0,1-5.44-6.36,15.85,15.85,0,0,1-.79-5v-1.16a14.08,14.08,0,0,1,1-5,11.54,11.54,0,0,1,6.28-6.86,12.54,12.54,0,0,1,4.94-1h.56a7.81,7.81,0,0,1,5.88,2.31,8.14,8.14,0,0,1,2.23,5.91v.56a4,4,0,0,1-1.94,3.75,28.51,28.51,0,0,1-6.49,1.78q-5.2,1-5.36,1.09c-1,.36-1.52.84-1.52,1.42a4.67,4.67,0,0,0,1.74,3.57,6.8,6.8,0,0,0,4.67,1.55,18,18,0,0,0,4.24-.71,19.46,19.46,0,0,1,3.4-.71c.79,0,1.19.46,1.19,1.39s-1,1.89-2.93,2.89A13.75,13.75,0,0,1,721.13,697.72Zm-.21-15.24a9.12,9.12,0,0,0,4.49-1,1.88,1.88,0,0,0,.84-1.79V679c0-.25,0-.41,0-.5a3.22,3.22,0,0,0-1.35-2.65,4.86,4.86,0,0,0-3.06-1.06h-.19l-.15,0h-.37a2.68,2.68,0,0,1-.5,0,5.28,5.28,0,0,0-3.94,2.11,6.72,6.72,0,0,0-1.87,4.57v.29c0,.65.5,1,1.5,1h1l.15,0,1.34-.1a6.44,6.44,0,0,1,.75-.09l.87-.1Z" style="fill:#fff"/><path d="M738,690.47v-3.39l0-.45v-.89l.16-7.31v-.92l.05-1.39q0-13.5.16-15.08c.14-1.45.84-2.18,2.1-2.18h.42a1.87,1.87,0,0,1,2.08,1.55q.1.5.1,6.54l-.08,2.26v.9l-.1,3.65q0,13.63.13,15.16a15.57,15.57,0,0,0,.75,3.44,10.46,10.46,0,0,1,.61,2.92c0,1.43-.81,2.15-2.44,2.15h-.81c-1,0-1.82-.65-2.36-2A13.44,13.44,0,0,1,738,690.47Z" style="fill:#fff"/><path d="M761.07,671.37h.81a9.74,9.74,0,0,1,7.78,3.31q2.88,3.3,2.89,9.67v.39a14,14,0,0,1-3.18,9.49,10,10,0,0,1-3.93,2.72,12.91,12.91,0,0,1-4.72.93h-.44a9,9,0,0,1-7.52-3.55q-2.35-3-2.36-8.7v-.84q0-9.16,6.2-12.37A9.56,9.56,0,0,1,761.07,671.37Zm-.69,22.93h.79a5.21,5.21,0,0,0,2.68-.78q3.52-2.13,3.52-9.46v-.58a11.47,11.47,0,0,0-1.54-6.43,4.61,4.61,0,0,0-4-2.29h-.78a5.43,5.43,0,0,0-4.44,2.57,11.72,11.72,0,0,0-1.9,7.1v1.76q.06.57.06.84a8,8,0,0,0,1.68,5.17A4.91,4.91,0,0,0,760.38,694.3Z" style="fill:#fff"/><path d="M779.14,676.52a5.65,5.65,0,0,1,.51-2.79,1.75,1.75,0,0,1,1.59-.84,4.21,4.21,0,0,1,2.29.79,4.65,4.65,0,0,0,1.54.79,11,11,0,0,0,2.39-1.08,8.13,8.13,0,0,1,3.7-1.08,3.81,3.81,0,0,1,2.45.67,1.93,1.93,0,0,1,.8,1.46v.29a1.51,1.51,0,0,1-.76,1.39,14.15,14.15,0,0,1-1.91.34,11.55,11.55,0,0,0-3.1.88,5.77,5.77,0,0,0-2.3,2.07q-1.79,2.67-1.78,10.56l-.08,2.07a9,9,0,0,1-.62,3.83,2.39,2.39,0,0,1-2.35,1.22,1.81,1.81,0,0,1-2-1.55c-.08-.47-.13-2.11-.13-4.91v-5.26l0-.42v-.89l-.08-3,0-.42-.08-3.34Z" style="fill:#fff"/><path d="M836.9,692.73v1a2.48,2.48,0,0,1-.62,1.66,1.89,1.89,0,0,1-1.47.71,3.77,3.77,0,0,1-1.62-.37,3,3,0,0,0-1.19-.37,14.64,14.64,0,0,0-2.83.88,13.14,13.14,0,0,1-4.57.88,9.13,9.13,0,0,1-7.15-2.92q-2.62-2.91-2.63-8.38v-.73a14.71,14.71,0,0,1,3.29-9.83,10.18,10.18,0,0,1,3.73-2.89,12.13,12.13,0,0,1,4.89-.89l2.84.15a1.69,1.69,0,0,0,1.81-1.34,26.55,26.55,0,0,0,.58-6.41q0-4.27,2.62-4.28c.84,0,1.39.23,1.63.7a11.79,11.79,0,0,1,.37,4l-.05,1.81c0,.4,0,.8,0,1.18l0,1.21c0,.4,0,.81,0,1.21l0,.58c0,.4,0,.8,0,1.21l0,1.2-.11,5.47c0,3.87,0,6.42.13,7.65l.06.55c0,.56.06.93.08,1.1l0,1.08.05.55c0,.7.12,1.46.2,2.29S836.9,692.62,836.9,692.73Zm-18.08-8.17V686l0,.29,0,.57a5.55,5.55,0,0,1,0,.56,7.36,7.36,0,0,0,1.61,4.7,4.52,4.52,0,0,0,3.49,2h.73a5,5,0,0,0,4.48-2.26,11,11,0,0,0,1.51-6.2l0-.55.08-2.23V681.3l0-.29v-.53l-.08-1.07a4.64,4.64,0,0,0-1.12-3.29,4.36,4.36,0,0,0-3.35-1.21h-.5a6.13,6.13,0,0,0-4.9,2.58A11,11,0,0,0,818.82,684.56Z" style="fill:#fff"/><path d="M854.13,697.72H853a10.15,10.15,0,0,1-4.2-.94,9.89,9.89,0,0,1-5.44-6.36,15.85,15.85,0,0,1-.79-5v-1.16a13.89,13.89,0,0,1,1-5,11.51,11.51,0,0,1,6.28-6.86,12.46,12.46,0,0,1,4.94-1h.55a7.81,7.81,0,0,1,5.88,2.31,8.15,8.15,0,0,1,2.24,5.91v.56a4,4,0,0,1-2,3.75,28.51,28.51,0,0,1-6.49,1.78c-3.47.69-5.25,1-5.36,1.09-1,.36-1.52.84-1.52,1.42a4.65,4.65,0,0,0,1.75,3.57,6.78,6.78,0,0,0,4.66,1.55,17.91,17.91,0,0,0,4.24-.71,19.32,19.32,0,0,1,3.41-.71c.78,0,1.18.46,1.18,1.39s-1,1.89-2.93,2.89A13.75,13.75,0,0,1,854.13,697.72Zm-.21-15.24a9.18,9.18,0,0,0,4.5-1,1.88,1.88,0,0,0,.84-1.79V679a3.85,3.85,0,0,1-.06-.5,3.22,3.22,0,0,0-1.35-2.65,4.86,4.86,0,0,0-3.06-1.06h-.18l-.16,0h-.37a2.68,2.68,0,0,1-.5,0,5.29,5.29,0,0,0-3.94,2.11,6.77,6.77,0,0,0-1.87,4.57v.29c0,.65.5,1,1.5,1h1l.16,0,1.34-.1a6.52,6.52,0,0,1,.74-.09l.87-.1Z" style="fill:#fff"/><path d="M872.81,675.52a8.3,8.3,0,0,1,3.34-2.66,10,10,0,0,1,4-.86h.68a13.5,13.5,0,0,1,4.21.84,22.45,22.45,0,0,0,3.62,1,2.41,2.41,0,0,1,1.79,1.13q.92,1.41.92,12.71v1.42l0,.74v1.42l0,1.36,0,.66,0,3.39q0,9.68-6.52,12.37a14,14,0,0,1-5.45,1,11.78,11.78,0,0,1-5-1c-1.37-.64-2-1.37-2-2.19s.58-1.24,1.73-1.24c.12,0,.6.05,1.43.13a27,27,0,0,0,2.86.14,8.24,8.24,0,0,0,5.55-2.07,6.61,6.61,0,0,0,2.41-5.24q0-1.89-1.5-1.89l-2.58.16a11.26,11.26,0,0,1-8.72-3.5,12.86,12.86,0,0,1-3.21-9C870.34,680.65,871.17,677.71,872.81,675.52Zm1.48,12a7.8,7.8,0,0,0,1.44,4.76,4.3,4.3,0,0,0,3.57,2H880a5.4,5.4,0,0,0,4.31-2q1.68-2,1.68-6.35a8.15,8.15,0,0,0,.05-.84l.06-1.1v-1.63l0-.26v-.55a7.24,7.24,0,0,1-.05-.79,5.54,5.54,0,0,0-1.11-3.7,3.87,3.87,0,0,0-3.12-1.3h-.74a5.9,5.9,0,0,0-5,2.59,11.08,11.08,0,0,0-1.91,6.72v1.68A7.54,7.54,0,0,1,874.29,687.53Z" style="fill:#fff"/><path d="M899.43,676.52a5.65,5.65,0,0,1,.51-2.79,1.74,1.74,0,0,1,1.59-.84,4.21,4.21,0,0,1,2.29.79,4.65,4.65,0,0,0,1.54.79,11,11,0,0,0,2.39-1.08,8.13,8.13,0,0,1,3.7-1.08,3.81,3.81,0,0,1,2.45.67,1.93,1.93,0,0,1,.8,1.46v.29a1.51,1.51,0,0,1-.76,1.39,14.15,14.15,0,0,1-1.91.34,11.44,11.44,0,0,0-3.1.88,5.77,5.77,0,0,0-2.3,2.07q-1.78,2.67-1.79,10.56l-.07,2.07a9,9,0,0,1-.62,3.83,2.39,2.39,0,0,1-2.35,1.22,1.81,1.81,0,0,1-2-1.55c-.08-.47-.13-2.11-.13-4.91v-5.26l0-.42v-.89l-.08-3,0-.42-.08-3.34Z" style="fill:#fff"/><path d="M929.85,697.72h-1.13a10.15,10.15,0,0,1-4.2-.94,9.87,9.87,0,0,1-5.44-6.36,15.85,15.85,0,0,1-.79-5v-1.16a14.08,14.08,0,0,1,1-5,11.54,11.54,0,0,1,6.28-6.86,12.54,12.54,0,0,1,4.94-1h.55a7.82,7.82,0,0,1,5.89,2.31,8.14,8.14,0,0,1,2.23,5.91v.56a4,4,0,0,1-1.94,3.75,28.51,28.51,0,0,1-6.49,1.78q-5.21,1-5.36,1.09c-1,.36-1.52.84-1.52,1.42a4.67,4.67,0,0,0,1.74,3.57,6.8,6.8,0,0,0,4.67,1.55,18,18,0,0,0,4.24-.71,19.46,19.46,0,0,1,3.4-.71c.79,0,1.19.46,1.19,1.39s-1,1.89-2.93,2.89A13.75,13.75,0,0,1,929.85,697.72Zm-.21-15.24a9.12,9.12,0,0,0,4.49-1,1.88,1.88,0,0,0,.84-1.79V679c0-.25-.05-.41-.05-.5a3.22,3.22,0,0,0-1.35-2.65,4.86,4.86,0,0,0-3.06-1.06h-.19l-.15,0h-.37a2.68,2.68,0,0,1-.5,0,5.28,5.28,0,0,0-3.94,2.11,6.72,6.72,0,0,0-1.87,4.57v.29c0,.65.5,1,1.5,1h.94l.16,0,1.34-.1a6.44,6.44,0,0,1,.75-.09l.87-.1Z" style="fill:#fff"/><path d="M956.26,697.72h-1.13a10.2,10.2,0,0,1-4.21-.94,9.92,9.92,0,0,1-5.44-6.36,16.13,16.13,0,0,1-.78-5v-1.16a14.08,14.08,0,0,1,1-5,11.51,11.51,0,0,1,6.28-6.86,12.5,12.5,0,0,1,4.94-1h.55a7.82,7.82,0,0,1,5.89,2.31,8.14,8.14,0,0,1,2.23,5.91v.56a4,4,0,0,1-1.94,3.75,28.68,28.68,0,0,1-6.49,1.78q-5.2,1-5.36,1.09c-1,.36-1.53.84-1.53,1.42a4.65,4.65,0,0,0,1.75,3.57,6.78,6.78,0,0,0,4.66,1.55,18,18,0,0,0,4.25-.71,19.28,19.28,0,0,1,3.4-.71c.79,0,1.18.46,1.18,1.39s-1,1.89-2.93,2.89A13.71,13.71,0,0,1,956.26,697.72Zm-.21-15.24a9.14,9.14,0,0,0,4.49-1,1.88,1.88,0,0,0,.84-1.79V679a3.32,3.32,0,0,1,0-.5,3.2,3.2,0,0,0-1.36-2.65,4.86,4.86,0,0,0-3.06-1.06h-.18l-.16,0h-.37a2.61,2.61,0,0,1-.5,0,5.31,5.31,0,0,0-3.94,2.11,6.75,6.75,0,0,0-1.86,4.57v.29c0,.65.5,1,1.5,1h.94l.16,0,1.34-.1a6.44,6.44,0,0,1,.75-.09l.87-.1Z" style="fill:#fff"/><path d="M1324.85,235.31a2.08,2.08,0,0,1-1.92,2.27,101.41,101.41,0,0,1-13.2.53l-1.8,0h-2.63a8.45,8.45,0,0,1-3.79-.52,1.77,1.77,0,0,1-.81-1.61v-.7c0-1.62,1.11-3.84,3.33-6.68a73.36,73.36,0,0,1,6.06-6.25,49.91,49.91,0,0,0,6.42-7.09,10.17,10.17,0,0,0,1.9-5.86,5.82,5.82,0,0,0-2.07-4.77,6.4,6.4,0,0,0-4.17-1.24,9.51,9.51,0,0,0-5.61,2.19q-2.94,2.17-4,2.18c-.69,0-1-.71-1-2.12s1.2-2.93,3.61-4.53a14.71,14.71,0,0,1,8.37-2.41,10.5,10.5,0,0,1,7.63,2.8,9.56,9.56,0,0,1,2.88,7.15,13.39,13.39,0,0,1-2.07,7.5,55.82,55.82,0,0,1-7.85,8.67q-5.79,5.53-5.78,7.36,0,1.32,7.35,1.32l4.93-.11c1.94,0,3.14.23,3.58.7A2,2,0,0,1,1324.85,235.31Z" style="fill:#14a1b8"/><path d="M1345.83,238.91h-1.15a10.43,10.43,0,0,1-9.06-4.61q-3.21-4.61-3.22-12.69v-3a32.8,32.8,0,0,1,1-7.94q1.86-7.47,6.93-10.45a11.11,11.11,0,0,1,5.67-1.66h1.71a9.83,9.83,0,0,1,5,1.42q7.14,4.16,7.15,17.18v.62a36.67,36.67,0,0,1-1,8.74q-1.83,7.59-6.88,10.6A12.06,12.06,0,0,1,1345.83,238.91Zm-8.47-18.22.06,2.19a16.22,16.22,0,0,0,2,8.51c1.35,2.22,3.09,3.32,5.21,3.32h.42c2.73,0,4.89-1.4,6.46-4.2s2.36-6.83,2.36-12.06v-1.39l0-.44,0-2.19A16.86,16.86,0,0,0,1352,206c-1.24-2.18-2.91-3.27-5-3.27h-.77q-3.6,0-6.23,4a16.54,16.54,0,0,0-1.71,4.53,25.13,25.13,0,0,0-.83,6.33l-.06.89,0,1.8Z" style="fill:#14a1b8"/><path d="M1380.75,232.32v1a5.4,5.4,0,0,1-1.71,3.92,4.26,4.26,0,0,1-3.14,1,3.79,3.79,0,0,1-3.25-1.57,5.41,5.41,0,0,1-1.13-3.25,10.14,10.14,0,0,1,.78-3.67,22.24,22.24,0,0,0,1.15-4,58.21,58.21,0,0,0,.37-8.3q0-6.31-.62-8.28a2.75,2.75,0,0,0-2.94-2c-1.54,0-2.32-.6-2.32-1.8,0-.91.67-1.82,2-2.75q4.93-3.39,7.17-3.39h.42q1.38,0,1.86,1.77a33.11,33.11,0,0,1,.29,5.79l-.12,4.54,0,1.15-.21,6.85,0,1.12,0,.59v1.13l0,1.12a16.92,16.92,0,0,0,.74,5.31l.41,1.21A8.93,8.93,0,0,1,1380.75,232.32Z" style="fill:#14a1b8"/><path d="M1407.47,221.67c-.16,0-1.06.13-2.72.41a26.72,26.72,0,0,1-4.44.41,10.37,10.37,0,0,1-4.1-.91,10,10,0,0,1-3.44-2.3,10.81,10.81,0,0,1-2.84-7.71q0-6.37,3.63-9.89a12.54,12.54,0,0,1,4.33-2.73,13.6,13.6,0,0,1,4.83-.93h.76a11.2,11.2,0,0,1,9.33,4.34q2.84,3.69,2.83,11.69l0,.77q0,16.41-9.66,21.81a13.61,13.61,0,0,1-6.76,1.92h-.62a4.76,4.76,0,0,1-3.11-.84,2.47,2.47,0,0,1-1-1.92,2,2,0,0,1,1.27-1.78,32.76,32.76,0,0,1,3.81-1,12.7,12.7,0,0,0,5.46-2.48q4.1-3.48,4.1-7.08Q1409.12,221.67,1407.47,221.67Zm-12.67-10.95v1.44a7.14,7.14,0,0,0,1.82,5,6.06,6.06,0,0,0,4.68,2h.53a8.57,8.57,0,0,0,6.05-2,7.66,7.66,0,0,0,2.22-5.92v-.53c-.06-.59-.09-1-.09-1.36a7.18,7.18,0,0,0-2-5,6.17,6.17,0,0,0-4.67-2.19h-1.07a6.67,6.67,0,0,0-5.28,2.55A9,9,0,0,0,1394.8,210.72Z" style="fill:#14a1b8"/><path d="M1254.2,262.28h1.68q6.54,0,8.58,4.4a10.41,10.41,0,0,1,.67,4.18,8.68,8.68,0,0,1-2.23,5.45,3.52,3.52,0,0,0-.81,1.22c0,.15.26.41.84.76a9.8,9.8,0,0,1,3.16,3,7.16,7.16,0,0,1,1.23,4v1.12a8.83,8.83,0,0,1-.93,4.07,9.23,9.23,0,0,1-6.16,4.77,22.84,22.84,0,0,1-6,.72h-4.14a10.94,10.94,0,0,1-3.44-.48,1.93,1.93,0,0,1-1.31-1.55,80.66,80.66,0,0,1-.26-9.3V275.3l0-1.55V272.2l-.12-5.52c0-1.9.26-3.05.79-3.45.73-.55,2.64-.83,5.71-.83l1.08,0Zm-4.94,12a3.9,3.9,0,0,0,.32,2.11,1.87,1.87,0,0,0,1.3.33h1.39l.21,0,.82-.05,1-.07a7,7,0,0,0,4.88-1.66,5.3,5.3,0,0,0,1.81-4.07v-.65a4.15,4.15,0,0,0-1.5-3.4,7.14,7.14,0,0,0-4.57-1.23h-.43l-.19,0h-.22c-2.64,0-4.1.27-4.37.82s-.4,2.35-.4,5.39l0,.41V273l0,.84Zm.07,9.56v3.77c0,2.41.14,3.82.42,4.24s1.44.64,3.47.64h1.46q8.38,0,8.39-6.72l0-.26a5.49,5.49,0,0,0-1.76-4.23,6.5,6.5,0,0,0-4.58-1.63l-.5,0h-2.39l-.24,0h-.47c-.32,0-.55.05-.7.05-1.38,0-2.24.22-2.58.67S1249.33,281.91,1249.33,283.79Z" style="fill:#fff"/><path d="M1290.89,289.14l.47,4.35a1.8,1.8,0,0,1-2,2.05,2.77,2.77,0,0,1-1.5-.58,3.41,3.41,0,0,0-1.07-.59c-.13,0-1.1.3-2.89.9a14.46,14.46,0,0,1-4.33.9H1279a6.58,6.58,0,0,1-4.74-1.85,7,7,0,0,1-1.91-5.31,6.49,6.49,0,0,1,2.77-5.51,10.74,10.74,0,0,1,5.26-1.86q5.24-.6,5.47-.72c.45-.22.67-.84.67-1.84q0-4.06-5.13-4.06a14.14,14.14,0,0,0-3.54.64c-1.53.43-2.35.65-2.46.65-.85,0-1.27-.45-1.27-1.34s.74-1.67,2.22-2.33a12,12,0,0,1,5-1h.55q7.58,0,8.63,6.59a55.12,55.12,0,0,1,.35,7.22l0,1.6Zm-14.17-1.22V289a3.78,3.78,0,0,0,1.23,3,4.75,4.75,0,0,0,3.31,1.11h.33a5.18,5.18,0,0,0,3.57-1.38,4.34,4.34,0,0,0,1.54-3.35l0-.33.07-1.49v-.81a1.61,1.61,0,0,0-.62-1.46,4.81,4.81,0,0,0-2.39-.4h-.36l-.19,0h-.52l-.53.05a6,6,0,0,1-.88.07,4.93,4.93,0,0,0-3.34,1.11A3.56,3.56,0,0,0,1276.72,287.92Z" style="fill:#fff"/><path d="M1306.87,296.09h-.52a8.73,8.73,0,0,1-7-3,11.3,11.3,0,0,1-2.56-7.67v-.55q0-8.58,5.93-11.47a10,10,0,0,1,4.44-1.05h1a7.11,7.11,0,0,1,4.06,1.26c1.24.85,1.86,1.72,1.86,2.63s-.55,1.37-1.64,1.37a2.77,2.77,0,0,1-.91-.32,10.74,10.74,0,0,0-4.2-1.17,5.76,5.76,0,0,0-2.9.73,6.08,6.08,0,0,0-2,1.85,10.72,10.72,0,0,0-1.34,5.91q0,7.71,6.74,7.72a11.41,11.41,0,0,0,3.21-.67l3.17-1a.9.9,0,0,1,1,1v.35c0,.94-1.13,1.93-3.37,3A11.94,11.94,0,0,1,1306.87,296.09Z" style="fill:#fff"/><path d="M1323,261.51a2,2,0,0,1,2.08,1.22,27.49,27.49,0,0,1,.31,5.86q0,5.09,1,5.09a3.84,3.84,0,0,0,.86-.15l.5-.14q.86-.25,1.53-.42a16.61,16.61,0,0,1,2.86-.15q4.5,0,6.24,4.51,1.53,4,1.53,15.11a4.47,4.47,0,0,1-.33,1.93c-.23.45-.74.67-1.56.67s-1.26-.81-1.57-2.44a64.37,64.37,0,0,1-.54-6.71,31.46,31.46,0,0,0-.78-6.79,6.94,6.94,0,0,0-3.75-2.94h0a5.25,5.25,0,0,0-4.9,3.13q-.76,1.48-1.12,6.89c-.24,3.6-.45,5.8-.62,6.62-.35,1.67-1,2.5-2,2.5a2,2,0,0,1-1.46-.47,3.85,3.85,0,0,1-.48-2.42v-.71l0-1.49c0-1,0-1.76,0-2.27l0-1.5c0-.51,0-1,0-1.48l.07-3,0-.74c0-.49,0-1,0-1.51l0-.76c0-.51,0-1,0-1.48l0-.77c0-.51,0-1,0-1.5l0-.74c0-.5,0-1,0-1.49l0-2.22a49.56,49.56,0,0,1,.34-7.67C1321.72,262,1322.22,261.51,1323,261.51Z" style="fill:#fff"/><path d="M1355.6,296.21h-1a9.13,9.13,0,0,1-3.82-.86,9,9,0,0,1-5-5.78,14.44,14.44,0,0,1-.72-4.52V284a12.82,12.82,0,0,1,.94-4.56,10.45,10.45,0,0,1,5.71-6.24,11.33,11.33,0,0,1,4.49-.91h.5a7.09,7.09,0,0,1,5.36,2.11,7.42,7.42,0,0,1,2,5.37v.5a3.61,3.61,0,0,1-1.77,3.42,25.52,25.52,0,0,1-5.9,1.61c-3.16.63-4.78,1-4.88,1-.92.33-1.39.76-1.39,1.29a4.25,4.25,0,0,0,1.59,3.25,6.18,6.18,0,0,0,4.25,1.41,16.16,16.16,0,0,0,3.85-.65,17.25,17.25,0,0,1,3.1-.64c.72,0,1.07.42,1.07,1.26s-.88,1.72-2.66,2.63A12.48,12.48,0,0,1,1355.6,296.21Zm-.19-13.86a8.26,8.26,0,0,0,4.08-.93,1.7,1.7,0,0,0,.77-1.62v-.58a4.5,4.5,0,0,1,0-.45,3,3,0,0,0-1.23-2.42,4.46,4.46,0,0,0-2.78-1H1356l-.14,0h-.34a3.2,3.2,0,0,1-.45.05,4.85,4.85,0,0,0-3.59,1.91,6.15,6.15,0,0,0-1.69,4.16v.26c0,.59.45.89,1.36.89h.86l.14,0,1.22-.09.68-.09.79-.08Z" style="fill:#fff"/><path d="M1370.92,289.62v-3.09l0-.4v-.81l.14-6.65v-.83l.05-1.27q0-12.29.15-13.72c.12-1.32.76-2,1.91-2h.38a1.69,1.69,0,0,1,1.89,1.41c.06.3.09,2.29.09,6l-.07,2v.82l-.09,3.32q0,12.4.11,13.79a14.29,14.29,0,0,0,.69,3.13,9.68,9.68,0,0,1,.56,2.65c0,1.31-.74,2-2.22,2h-.75c-.94,0-1.65-.6-2.13-1.79A12.09,12.09,0,0,1,1370.92,289.62Z" style="fill:#fff"/><path d="M1391.92,272.24h.74a8.85,8.85,0,0,1,7.07,3c1.76,2,2.63,4.93,2.63,8.79v.36a12.69,12.69,0,0,1-2.89,8.62,9,9,0,0,1-3.57,2.48,11.79,11.79,0,0,1-4.29.85h-.41a8.19,8.19,0,0,1-6.83-3.23c-1.44-1.83-2.15-4.47-2.15-7.91v-.76q0-8.34,5.64-11.26A8.62,8.62,0,0,1,1391.92,272.24Zm-.62,20.87h.71a4.66,4.66,0,0,0,2.44-.72c2.14-1.29,3.2-4.16,3.2-8.6v-.53a10.44,10.44,0,0,0-1.39-5.84,4.2,4.2,0,0,0-3.62-2.09h-.72a5,5,0,0,0-4,2.34,10.67,10.67,0,0,0-1.72,6.45v1.6c0,.35,0,.61,0,.77a7.27,7.27,0,0,0,1.53,4.7A4.46,4.46,0,0,0,1391.3,293.11Z" style="fill:#fff"/><path d="M1408.36,276.93a5.07,5.07,0,0,1,.47-2.53,1.57,1.57,0,0,1,1.44-.77,3.84,3.84,0,0,1,2.08.72,3.93,3.93,0,0,0,1.4.71,9.53,9.53,0,0,0,2.17-1,7.49,7.49,0,0,1,3.37-1,3.47,3.47,0,0,1,2.23.61,1.75,1.75,0,0,1,.72,1.33v.26a1.36,1.36,0,0,1-.69,1.27,12.75,12.75,0,0,1-1.73.31,10.31,10.31,0,0,0-2.82.8,5.16,5.16,0,0,0-2.09,1.88q-1.64,2.43-1.63,9.6l-.07,1.89a8.18,8.18,0,0,1-.56,3.48,2.18,2.18,0,0,1-2.14,1.11,1.64,1.64,0,0,1-1.84-1.41,42.59,42.59,0,0,1-.12-4.47V285l0-.38v-.81l-.07-2.73,0-.38-.07-3Z" style="fill:#fff"/><path d="M1436.77,271.58c.77,0,1.22.19,1.35.58a19.55,19.55,0,0,1,.21,4q0,3.39.24,3.57a14.87,14.87,0,0,0,3.48.18,23,23,0,0,1,3.92.18c.45.12.67.59.67,1.4s-.26,1.32-.77,1.52a14.84,14.84,0,0,1-3.9.29,12.31,12.31,0,0,0-3.45.23c-.23.15-.34,1.41-.34,3.77a13.34,13.34,0,0,1-.35,4.17,1.62,1.62,0,0,1-1.53.63h-.39a1,1,0,0,1-1.12-.91,32.1,32.1,0,0,1-.12-3.89,15.91,15.91,0,0,0-.21-3.59q-.2-.24-3.54-.24a18.59,18.59,0,0,1-3.9-.21c-.36-.15-.55-.6-.55-1.38a1.45,1.45,0,0,1,.72-1.48,13.85,13.85,0,0,1,4-.32c2.15,0,3.3-.12,3.43-.35a14.81,14.81,0,0,0,.19-3.4,16,16,0,0,1,.28-3.9,1.25,1.25,0,0,1,1.34-.83Z" style="fill:#fff"/><path d="M1471.51,293.49a1.68,1.68,0,0,1-1.55,1.84,80.69,80.69,0,0,1-10.68.43l-1.46,0h-2.13a6.89,6.89,0,0,1-3.07-.42,1.42,1.42,0,0,1-.66-1.3v-.57q0-2,2.71-5.4a58.37,58.37,0,0,1,4.89-5.07,40.19,40.19,0,0,0,5.2-5.73,8.24,8.24,0,0,0,1.54-4.75,4.69,4.69,0,0,0-1.67-3.86,5.16,5.16,0,0,0-3.38-1,7.69,7.69,0,0,0-4.54,1.77c-1.59,1.18-2.66,1.77-3.23,1.77s-.85-.58-.85-1.72,1-2.37,2.93-3.67a11.94,11.94,0,0,1,6.78-1.95,8.47,8.47,0,0,1,6.17,2.27,7.69,7.69,0,0,1,2.33,5.78,10.77,10.77,0,0,1-1.67,6.07,45,45,0,0,1-6.36,7q-4.68,4.47-4.68,6c0,.72,2,1.07,5.95,1.07l4-.09q2.37,0,2.91.57A1.63,1.63,0,0,1,1471.51,293.49Z" style="fill:#fff"/><path d="M1231.82,336.47c0-.42.68-1,2-1.74a10.88,10.88,0,0,0,3.29-2.68,5.39,5.39,0,0,0,1.27-3.47q0-3.54-4-3.54a13,13,0,0,0-3.65.72,21,21,0,0,1-2.56.72c-.89,0-1.34-.36-1.34-1.08,0-1,.95-1.9,2.83-2.76a14.12,14.12,0,0,1,5.85-1.28h.74a7.35,7.35,0,0,1,4.58,1.15,5.46,5.46,0,0,1,1.94,4.54,14.17,14.17,0,0,1-2,6.67,11.84,11.84,0,0,0-.86,1.72c0,.21.53.74,1.58,1.6a8.51,8.51,0,0,1,3.44,6.84v.74a8.6,8.6,0,0,1-3.25,6.73,12.06,12.06,0,0,1-8.17,2.8,11.67,11.67,0,0,1-5.53-1.31c-1.65-.88-2.48-1.84-2.48-2.9,0-.9.52-1.36,1.56-1.36a14.31,14.31,0,0,1,2.92.71,13.71,13.71,0,0,0,3.86.7,6.51,6.51,0,0,0,4.57-1.57,5.14,5.14,0,0,0,1.72-3.92c0-3-1.91-4.93-5.71-5.83a6.31,6.31,0,0,1-1.72-.58A1.9,1.9,0,0,1,1231.82,336.47Z" style="fill:#fff"/><path d="M1278.17,345q1,0,3.47-9.79t3-11.24c.64-1.67,1.3-2.5,2-2.5a.92.92,0,0,1,1,1.05c0,.56-.38,3-1.14,7.43a168.37,168.37,0,0,1-4,16.61c-.84,3-2,4.49-3.49,4.49q-1.93,0-3.75-3.13a65.9,65.9,0,0,1-4.68-10.47q-.75-2-1-2.46l-.4-.74c-.31,0-1.23,1.79-2.78,5.35a85.67,85.67,0,0,1-3.92,8.16c-1.06,1.88-2.15,2.81-3.25,2.81a2.52,2.52,0,0,1-1.43-.74,5.76,5.76,0,0,1-1.51-2.63,135.37,135.37,0,0,1-3.87-15.2q-1.58-8-1.57-8.84c0-.52.16-.79.5-.79,1.23,0,2.16.75,2.81,2.25s1.84,5.31,3.58,11.42,2.83,9.18,3.26,9.18q.89,0,3.3-8.56.77-2.75,1.64-6.47a46.38,46.38,0,0,1,1.28-4.81c.47-1.22,1.13-1.83,2-1.83a3,3,0,0,1,1.83.44,3.7,3.7,0,0,1,1,1.66l.34,1.05c.14.48.33,1.21.57,2.2l1.46,5.73c.14.55.34,1.29.6,2.25C1276.49,342.27,1277.53,345,1278.17,345Z" style="fill:#fff"/><path d="M1332.36,351v.43q0,1.05-1.2,1.05a2.48,2.48,0,0,1-2-1,24.52,24.52,0,0,1-2.23-3.93,13.2,13.2,0,0,0-1.88-3.24q-1.33-1-5.81-1t-5.7,1.17a13.07,13.07,0,0,0-2.51,4.66c-.85,2.33-1.8,3.49-2.87,3.49-.88,0-1.32-.4-1.32-1.19a40.66,40.66,0,0,1,1.77-6.43q6-18.69,6.36-19.62a20.11,20.11,0,0,1,2.22-4.24,3.09,3.09,0,0,1,2.56-1.19,3.8,3.8,0,0,1,3,2,44.1,44.1,0,0,1,3.64,7.77,103.51,103.51,0,0,1,4.09,13.46Q1332.36,350.93,1332.36,351Zm-17.69-11.74v.31c0,.37.54.55,1.6.55h1.87l.21,0,2.06,0h1.43c1.53,0,2.3-.31,2.3-.93l0-.17v-.19c0-.33-.6-2.78-1.81-7.33q-2-6.57-2.37-6.84a10.32,10.32,0,0,0-.69,1.29c-.43.86-1.3,3.26-2.61,7.18S1314.67,339.1,1314.67,339.26Z" style="fill:#fff"/><path d="M1346.88,353.65h-.52a8.77,8.77,0,0,1-7-3,11.33,11.33,0,0,1-2.56-7.68v-.54q0-8.58,5.93-11.48a10,10,0,0,1,4.44-1.05h1a7.12,7.12,0,0,1,4.06,1.27c1.24.84,1.87,1.72,1.87,2.63s-.55,1.36-1.65,1.36a2.67,2.67,0,0,1-.91-.31,10.69,10.69,0,0,0-4.2-1.17,5.65,5.65,0,0,0-2.9.73,5.88,5.88,0,0,0-2,1.85,10.72,10.72,0,0,0-1.33,5.9q0,7.73,6.73,7.72a11.06,11.06,0,0,0,3.21-.67l3.17-1a.91.91,0,0,1,1,1v.36q0,1.41-3.37,3A11.8,11.8,0,0,1,1346.88,353.65Z" style="fill:#fff"/><path d="M1377.9,346.69l.48,4.35a1.81,1.81,0,0,1-2,2.06,2.85,2.85,0,0,1-1.51-.59,3.18,3.18,0,0,0-1.06-.58c-.14,0-1.1.3-2.89.89a14.46,14.46,0,0,1-4.34.9H1366a6.53,6.53,0,0,1-4.73-1.84,7.07,7.07,0,0,1-1.91-5.32,6.46,6.46,0,0,1,2.77-5.5,10.71,10.71,0,0,1,5.26-1.87q5.23-.6,5.47-.72c.45-.22.67-.83.67-1.84,0-2.7-1.71-4.06-5.14-4.06a14.25,14.25,0,0,0-3.54.65c-1.52.43-2.35.64-2.46.64-.84,0-1.26-.44-1.26-1.34s.74-1.66,2.22-2.33a12,12,0,0,1,5-1h.55q7.58,0,8.62,6.6a56.3,56.3,0,0,1,.36,7.21l0,1.61Zm-14.17-1.21v1.1a3.79,3.79,0,0,0,1.23,2.95,4.77,4.77,0,0,0,3.31,1.11h.34a5.16,5.16,0,0,0,3.57-1.39,4.32,4.32,0,0,0,1.54-3.34l0-.34.07-1.48v-.81a1.62,1.62,0,0,0-.62-1.46,4.81,4.81,0,0,0-2.39-.41h-.36l-.19,0h-.53l-.52.05a7.87,7.87,0,0,1-.89.07,4.89,4.89,0,0,0-3.33,1.11A3.57,3.57,0,0,0,1363.73,345.48Z" style="fill:#fff"/><path d="M1404.52,349.23v.88a2.19,2.19,0,0,1-.56,1.51,1.71,1.71,0,0,1-1.34.64,3.43,3.43,0,0,1-1.47-.33,2.8,2.8,0,0,0-1.08-.34,13.59,13.59,0,0,0-2.57.8,11.9,11.9,0,0,1-4.16.8,8.3,8.3,0,0,1-6.5-2.65q-2.38-2.66-2.39-7.62v-.67a13.39,13.39,0,0,1,3-8.94,9.46,9.46,0,0,1,3.39-2.63,11.07,11.07,0,0,1,4.44-.81l2.59.14a1.53,1.53,0,0,0,1.64-1.21A24,24,0,0,0,1400,323q0-3.9,2.39-3.9c.77,0,1.26.21,1.48.63a10.67,10.67,0,0,1,.34,3.62l0,1.65q0,.55,0,1.08l0,1.1c0,.36,0,.73,0,1.1l0,.52c0,.37,0,.74,0,1.1l0,1.1-.1,5q0,5.28.12,7l0,.5c0,.51.06.84.07,1l0,1,0,.5c0,.64.1,1.33.18,2.08S1404.52,349.13,1404.52,349.23Zm-16.44-7.43v1.33l0,.27,0,.52a4.44,4.44,0,0,1,0,.5,6.64,6.64,0,0,0,1.47,4.28,4.11,4.11,0,0,0,3.17,1.84h.67a4.56,4.56,0,0,0,4.07-2.05,10,10,0,0,0,1.38-5.64l0-.5.07-2v-1.48l0-.26v-.48l-.07-1a4.23,4.23,0,0,0-1-3,3.94,3.94,0,0,0-3.05-1.1h-.45a5.56,5.56,0,0,0-4.46,2.34A10,10,0,0,0,1388.08,341.8Z" style="fill:#fff"/><path d="M1420.2,353.77h-1a9.29,9.29,0,0,1-3.82-.86,9,9,0,0,1-4.95-5.78,14.48,14.48,0,0,1-.71-4.52v-1.05a12.89,12.89,0,0,1,.93-4.57,10.46,10.46,0,0,1,5.71-6.23,11.33,11.33,0,0,1,4.49-.91h.5a7.12,7.12,0,0,1,5.36,2.1,7.45,7.45,0,0,1,2,5.38v.5a3.61,3.61,0,0,1-1.77,3.42,26.07,26.07,0,0,1-5.9,1.61c-3.16.63-4.78,1-4.88,1q-1.38.51-1.38,1.29a4.23,4.23,0,0,0,1.58,3.25,6.18,6.18,0,0,0,4.25,1.41,16.19,16.19,0,0,0,3.86-.64,17.44,17.44,0,0,1,3.09-.65c.72,0,1.08.42,1.08,1.27s-.89,1.72-2.67,2.63A12.6,12.6,0,0,1,1420.2,353.77Zm-.19-13.86a8.33,8.33,0,0,0,4.09-.93,1.72,1.72,0,0,0,.76-1.63v-.57c0-.23,0-.38,0-.46a2.94,2.94,0,0,0-1.23-2.41,4.41,4.41,0,0,0-2.78-1h-.17l-.14,0h-.34a3.2,3.2,0,0,1-.45,0,4.82,4.82,0,0,0-3.59,1.91,6.13,6.13,0,0,0-1.69,4.16v.26c0,.59.45.88,1.36.88h.86l.14,0,1.22-.1c.19,0,.42-.06.68-.08l.79-.08A3.72,3.72,0,0,1,1420,339.91Z" style="fill:#fff"/><path d="M1436.71,351.55c-1.06,0-1.6-1-1.6-3V346q0-12.44,1.63-13.58a1.65,1.65,0,0,1,.94-.23,4.74,4.74,0,0,1,1.23.17,3.73,3.73,0,0,0,.93.18,13.75,13.75,0,0,0,2.54-.95,9.49,9.49,0,0,1,3.44-1h.86a9.45,9.45,0,0,1,3.82,1.23q2.46,1.23,2.52,1.23s.88-.33,2.51-1a11.52,11.52,0,0,1,4.27-1,5.5,5.5,0,0,1,3.33,1.1,6.78,6.78,0,0,1,2.31,3.2q1.38,3.7,1.38,14.72c0,1.34-.49,2-1.48,2s-1.7-2.33-2.38-7a60,60,0,0,0-1.4-7.89,4.27,4.27,0,0,0-1.36-1.68,3.55,3.55,0,0,0-2.32-.79,3.31,3.31,0,0,0-3.25,2.41q-.95,2.41-1.52,10.42a19.62,19.62,0,0,1-.43,3.44,2.15,2.15,0,0,1-2.3,1.58,1.49,1.49,0,0,1-1.6-1.08,44.33,44.33,0,0,1-.33-7.57c0-4.34-.29-7-.85-8.07a3.22,3.22,0,0,0-3.1-1.56,4.77,4.77,0,0,0-2.36.89,5.7,5.7,0,0,0-2.14,2.42,19.93,19.93,0,0,0-1.11,6,48.63,48.63,0,0,1-.8,6.2Q1437.67,351.55,1436.71,351.55Z" style="fill:#fff"/><path d="M1474,331.5c.86,0,1.64.75,2.32,2.27a47,47,0,0,1,2,6.22q1.26,4.65,1.45,5.22c.63,1.77,1.26,2.66,1.86,2.66.1,0,.45-.31,1.05-.94q1.93-2,3.61-9.34a39.83,39.83,0,0,1,1.7-6,1.87,1.87,0,0,1,1.81-1.14c1.06,0,1.58.48,1.58,1.43q0,1.08-1.85,10t-3.62,12.8a20.41,20.41,0,0,1-4.37,6.29q-2.61,2.46-4.74,2.46h-.33c-.89,0-1.34-.23-1.34-.67,0-.62.54-1.25,1.6-1.87a12,12,0,0,0,3-2.22,6.75,6.75,0,0,0,1.53-4.28c0-.71-.74-2.2-2.2-4.47a39.88,39.88,0,0,1-3.32-6q-3.4-8.08-3.4-10.37V333Q1472.33,331.5,1474,331.5Z" style="fill:#fff"/><path d="M1885.08,628.51a1.86,1.86,0,0,1-1.73,2,90.48,90.48,0,0,1-11.91.48l-1.62,0h-2.37a7.53,7.53,0,0,1-3.42-.47,1.59,1.59,0,0,1-.74-1.45v-.64c0-1.45,1-3.46,3-6a68.58,68.58,0,0,1,5.46-5.65,44.68,44.68,0,0,0,5.8-6.39,9.23,9.23,0,0,0,1.72-5.29,5.25,5.25,0,0,0-1.87-4.3,5.78,5.78,0,0,0-3.77-1.12,8.64,8.64,0,0,0-5.06,2c-1.77,1.32-3,2-3.59,2s-1-.64-1-1.92,1.09-2.64,3.26-4.09a13.32,13.32,0,0,1,7.55-2.17,9.44,9.44,0,0,1,6.89,2.53,8.61,8.61,0,0,1,2.6,6.44,12,12,0,0,1-1.87,6.77,50.8,50.8,0,0,1-7.08,7.83q-5.22,5-5.22,6.64,0,1.18,6.63,1.19l4.45-.1c1.76,0,2.83.21,3.23.64A1.76,1.76,0,0,1,1885.08,628.51Z" style="fill:#fff"/><path d="M1904,631.76h-1a9.38,9.38,0,0,1-8.17-4.15q-2.91-4.15-2.91-11.46v-2.71a29.86,29.86,0,0,1,.91-7.17q1.68-6.74,6.26-9.43a10,10,0,0,1,5.11-1.49h1.55a8.8,8.8,0,0,1,4.53,1.28q6.43,3.75,6.44,15.5v.56a32.92,32.92,0,0,1-.85,7.88q-1.65,6.85-6.21,9.57A10.92,10.92,0,0,1,1904,631.76Zm-7.64-16.43,0,2a14.53,14.53,0,0,0,1.83,7.68,5.38,5.38,0,0,0,4.7,3h.37c2.47,0,4.41-1.27,5.84-3.8s2.13-6.15,2.13-10.88v-1.25l0-.4,0-2a15.26,15.26,0,0,0-1.68-7.61,5.05,5.05,0,0,0-4.5-2.94h-.7c-2.16,0-4,1.19-5.62,3.57a14.74,14.74,0,0,0-1.54,4.09,22.45,22.45,0,0,0-.75,5.71l0,.8,0,1.63Z" style="fill:#fff"/><path d="M1935.54,625.82v.93a4.88,4.88,0,0,1-1.55,3.55,3.87,3.87,0,0,1-2.84.93,3.41,3.41,0,0,1-2.93-1.41,4.94,4.94,0,0,1-1-2.93,9.17,9.17,0,0,1,.7-3.32,18.81,18.81,0,0,0,1-3.58,50.27,50.27,0,0,0,.34-7.49,31,31,0,0,0-.56-7.47,2.48,2.48,0,0,0-2.65-1.77c-1.4,0-2.1-.54-2.1-1.63,0-.81.61-1.64,1.82-2.47,3-2,5.12-3.07,6.47-3.07h.37c.84,0,1.4.54,1.68,1.6a28.67,28.67,0,0,1,.27,5.22l-.11,4.11,0,1-.19,6.18,0,1,0,.53v1l0,1a15.07,15.07,0,0,0,.67,4.8l.37,1.09A8.35,8.35,0,0,1,1935.54,625.82Z" style="fill:#fff"/><path d="M1959.64,616.21c-.14,0-1,.12-2.45.37a24.47,24.47,0,0,1-4,.37,9.41,9.41,0,0,1-3.7-.82,9.06,9.06,0,0,1-3.1-2.08,9.71,9.71,0,0,1-2.56-6.95q0-5.76,3.27-8.93a11.28,11.28,0,0,1,3.91-2.46,12.24,12.24,0,0,1,4.35-.84h.69a10.1,10.1,0,0,1,8.42,3.91q2.57,3.33,2.56,10.55l0,.7q0,14.81-8.71,19.68a12.23,12.23,0,0,1-6.1,1.73h-.56a4.27,4.27,0,0,1-2.81-.76,2.23,2.23,0,0,1-.89-1.73,1.86,1.86,0,0,1,1.15-1.61,30.61,30.61,0,0,1,3.43-.88,11.35,11.35,0,0,0,4.93-2.24q3.71-3.13,3.7-6.39C1961.13,616.75,1960.64,616.21,1959.64,616.21Zm-11.43-9.89v1.31a6.45,6.45,0,0,0,1.64,4.53,5.46,5.46,0,0,0,4.22,1.78h.48a7.73,7.73,0,0,0,5.46-1.85,6.88,6.88,0,0,0,2-5.34v-.48c0-.53-.08-.94-.08-1.23a6.47,6.47,0,0,0-1.82-4.48,5.59,5.59,0,0,0-4.23-2h-1a6,6,0,0,0-4.77,2.31A8.14,8.14,0,0,0,1948.21,606.32Z" style="fill:#fff"/><path d="M1792,676.85a7.85,7.85,0,0,1-.63,2.71,7.69,7.69,0,0,1-4.87,4.41,14.24,14.24,0,0,1-4.88.74,12.47,12.47,0,0,1-5.19-1.06,8.34,8.34,0,0,1-3.28-2.36,1.93,1.93,0,0,1-.47-1c0-1.18.47-1.77,1.42-1.77a18.84,18.84,0,0,1,2.85,1.31,11.34,11.34,0,0,0,5.26,1.33,5.93,5.93,0,0,0,4.09-1.28,4.27,4.27,0,0,0,1.42-3.31,4.71,4.71,0,0,0-2.06-3.68,26.37,26.37,0,0,0-4.9-2.66,18.72,18.72,0,0,1-5.14-3.14,7.55,7.55,0,0,1-2.21-5.56,6.78,6.78,0,0,1,.81-3.25,7.29,7.29,0,0,1,2.2-2.51,10.34,10.34,0,0,1,6.23-1.88,12.52,12.52,0,0,1,5.65,1c1.67.85,2.51,1.85,2.51,3a1.17,1.17,0,0,1-1.32,1.32,11.4,11.4,0,0,1-2.67-1,9.67,9.67,0,0,0-3.89-1c-3.11,0-5,1.17-5.49,3.51a2.61,2.61,0,0,0-.09.69,4.18,4.18,0,0,0,.39,1.69,5.51,5.51,0,0,0,2.16,2.31q.51.33,4.33,2.08a20.22,20.22,0,0,1,5.39,3.25,7.21,7.21,0,0,1,2.38,5.41Z" style="fill:#fff"/><path d="M1796.33,665v-.31a1.9,1.9,0,0,1,.89-1.71,6.23,6.23,0,0,0,1.62-1.22,8,8,0,0,0,.39-1.88,13.06,13.06,0,0,1,.66-2.69c.29-.73.69-1.09,1.21-1.09h.32a1.2,1.2,0,0,1,1.19.68,9.26,9.26,0,0,1,.57,2.47,6.5,6.5,0,0,0,.64,2.37A5.1,5.1,0,0,0,1806,663c1.17.48,1.76.95,1.76,1.39v.18c0,.33-.56.69-1.67,1.09a3.38,3.38,0,0,0-2.16,1.79,21.11,21.11,0,0,0-1.13,7.83,7.75,7.75,0,0,0,.81,4.13A3.79,3.79,0,0,0,1806,681c1.1.24,1.66.76,1.66,1.57a1.52,1.52,0,0,1-.73,1.28,3.07,3.07,0,0,1-1.85.52h-.39a5.27,5.27,0,0,1-3.09-.93,5.6,5.6,0,0,1-2-2.59,23.51,23.51,0,0,1-.91-6.44,46.13,46.13,0,0,0-.53-6.1,4.32,4.32,0,0,0-.76-1.86A7,7,0,0,1,1796.33,665Z" style="fill:#fff"/><path d="M1828.84,678.3l.43,3.94a1.63,1.63,0,0,1-1.84,1.86,2.48,2.48,0,0,1-1.36-.53,3.12,3.12,0,0,0-1-.53,26.89,26.89,0,0,0-2.62.81,13.2,13.2,0,0,1-3.93.82h-.5a5.93,5.93,0,0,1-4.28-1.67,6.36,6.36,0,0,1-1.73-4.82,5.85,5.85,0,0,1,2.51-5,9.74,9.74,0,0,1,4.76-1.68c3.16-.36,4.81-.58,5-.65.41-.2.61-.76.61-1.67q0-3.68-4.65-3.68a13,13,0,0,0-3.21.59c-1.38.39-2.12.58-2.23.58-.76,0-1.14-.4-1.14-1.21s.67-1.51,2-2.11a10.86,10.86,0,0,1,4.48-.9h.5q6.85,0,7.81,6a51.16,51.16,0,0,1,.33,6.54l0,1.45ZM1816,677.2v1a3.45,3.45,0,0,0,1.11,2.68,4.3,4.3,0,0,0,3,1h.3a4.72,4.72,0,0,0,3.24-1.25,3.94,3.94,0,0,0,1.39-3l0-.3.06-1.35v-.73a1.46,1.46,0,0,0-.56-1.32,4.32,4.32,0,0,0-2.17-.37h-.32l-.17,0h-.48l-.48,0a4.9,4.9,0,0,1-.8.07,4.41,4.41,0,0,0-3,1A3.21,3.21,0,0,0,1816,677.2Z" style="fill:#fff"/><path d="M1835.4,667.24a4.64,4.64,0,0,1,.42-2.29,1.43,1.43,0,0,1,1.31-.69,3.41,3.41,0,0,1,1.88.65,3.71,3.71,0,0,0,1.27.64,9,9,0,0,0,2-.88,6.74,6.74,0,0,1,3-.89,3.07,3.07,0,0,1,2,.55,1.58,1.58,0,0,1,.66,1.2v.24a1.24,1.24,0,0,1-.63,1.15,11.31,11.31,0,0,1-1.56.28,9.43,9.43,0,0,0-2.56.72,4.68,4.68,0,0,0-1.89,1.7c-1,1.47-1.47,4.38-1.47,8.7l-.07,1.71a7.32,7.32,0,0,1-.51,3.15,2,2,0,0,1-1.93,1,1.49,1.49,0,0,1-1.67-1.28,39.19,39.19,0,0,1-.11-4v-4.32l0-.35v-.74l-.07-2.46,0-.35-.06-2.75Z" style="fill:#fff"/><path d="M1851.58,665v-.31a1.9,1.9,0,0,1,.89-1.71,6.38,6.38,0,0,0,1.63-1.22,9.26,9.26,0,0,0,.39-1.88,11.88,11.88,0,0,1,.66-2.69c.28-.73.68-1.09,1.2-1.09h.32a1.2,1.2,0,0,1,1.19.68,9.57,9.57,0,0,1,.58,2.47,6.35,6.35,0,0,0,.63,2.37,5.09,5.09,0,0,0,2.15,1.31c1.16.48,1.75.95,1.75,1.39v.18c0,.33-.56.69-1.67,1.09a3.38,3.38,0,0,0-2.16,1.79,21.11,21.11,0,0,0-1.13,7.83,7.75,7.75,0,0,0,.81,4.13,3.82,3.82,0,0,0,2.47,1.57c1.11.24,1.66.76,1.66,1.57a1.52,1.52,0,0,1-.73,1.28,3.07,3.07,0,0,1-1.85.52H1860a5.27,5.27,0,0,1-3.09-.93,5.52,5.52,0,0,1-2-2.59,23.12,23.12,0,0,1-.91-6.44,50.11,50.11,0,0,0-.53-6.1,4.43,4.43,0,0,0-.77-1.86A7,7,0,0,1,1851.58,665Z" style="fill:#fff"/><path d="M1876.6,684.71h-.93a8.36,8.36,0,0,1-3.46-.78,8.12,8.12,0,0,1-4.48-5.24,13.2,13.2,0,0,1-.65-4.09v-1a11.65,11.65,0,0,1,.84-4.13,9.47,9.47,0,0,1,5.18-5.65,10.27,10.27,0,0,1,4.06-.83h.46a6.45,6.45,0,0,1,4.85,1.91,6.74,6.74,0,0,1,1.84,4.87v.45a3.28,3.28,0,0,1-1.61,3.1,23.18,23.18,0,0,1-5.34,1.46c-2.86.57-4.33.87-4.42.9-.83.3-1.25.69-1.25,1.17a3.84,3.84,0,0,0,1.44,2.94,5.58,5.58,0,0,0,3.84,1.28,14.6,14.6,0,0,0,3.49-.59,15.49,15.49,0,0,1,2.81-.58c.65,0,1,.38,1,1.14s-.8,1.56-2.41,2.38A11.23,11.23,0,0,1,1876.6,684.71Zm-.17-12.55a7.52,7.52,0,0,0,3.7-.85,1.54,1.54,0,0,0,.69-1.47v-.52a3.1,3.1,0,0,1,0-.41,2.66,2.66,0,0,0-1.12-2.19,4,4,0,0,0-2.52-.86H1877l-.13,0h-.3a2.51,2.51,0,0,1-.41,0,4.39,4.39,0,0,0-3.25,1.73,5.6,5.6,0,0,0-1.54,3.77v.24c0,.53.42.8,1.24.8h.78l.13,0,1.1-.09.62-.08.71-.07A4.31,4.31,0,0,1,1876.43,672.16Z" style="fill:#fff"/><path d="M1907.77,680.6v.8a2,2,0,0,1-.51,1.36,1.57,1.57,0,0,1-1.22.58,3.08,3.08,0,0,1-1.33-.3,2.44,2.44,0,0,0-1-.3,12.37,12.37,0,0,0-2.33.72,10.74,10.74,0,0,1-3.76.73,7.53,7.53,0,0,1-5.89-2.4q-2.16-2.41-2.16-6.91v-.6a12.15,12.15,0,0,1,2.7-8.1,8.47,8.47,0,0,1,3.08-2.38,10,10,0,0,1,4-.73l2.34.13a1.39,1.39,0,0,0,1.49-1.11,21.52,21.52,0,0,0,.48-5.28c0-2.35.72-3.53,2.16-3.53a1.38,1.38,0,0,1,1.34.58,9.53,9.53,0,0,1,.31,3.28l0,1.49c0,.33,0,.66,0,1l0,1c0,.33,0,.66,0,1l0,.48c0,.33,0,.66,0,1l0,1-.09,4.5q0,4.79.11,6.3l0,.46c0,.46.06.76.07.9l0,.89,0,.46c0,.57.09,1.2.16,1.88S1907.77,680.51,1907.77,680.6Zm-14.89-6.73v1.21l0,.24,0,.47c0,.16,0,.31,0,.46a6,6,0,0,0,1.33,3.87,3.75,3.75,0,0,0,2.87,1.67h.61a4.14,4.14,0,0,0,3.69-1.87,9.16,9.16,0,0,0,1.24-5.1l0-.46.07-1.84v-1.34l0-.24v-.43l-.07-.89a3.83,3.83,0,0,0-.92-2.7,3.55,3.55,0,0,0-2.76-1h-.41a5,5,0,0,0-4,2.12A9.05,9.05,0,0,0,1892.88,673.87Z" style="fill:#fff"/><path d="M1942.2,678.3l.43,3.94a1.63,1.63,0,0,1-1.84,1.86,2.48,2.48,0,0,1-1.36-.53,3.12,3.12,0,0,0-1-.53,26.89,26.89,0,0,0-2.62.81,13.32,13.32,0,0,1-3.93.82h-.5a5.93,5.93,0,0,1-4.28-1.67,6.37,6.37,0,0,1-1.74-4.82,5.86,5.86,0,0,1,2.52-5,9.74,9.74,0,0,1,4.76-1.68c3.16-.36,4.81-.58,5-.65.41-.2.61-.76.61-1.67q0-3.68-4.66-3.68a12.9,12.9,0,0,0-3.2.59c-1.38.39-2.13.58-2.23.58-.76,0-1.14-.4-1.14-1.21s.67-1.51,2-2.11a10.83,10.83,0,0,1,4.48-.9h.5q6.86,0,7.81,6a49.8,49.8,0,0,1,.32,6.54l0,1.45Zm-12.83-1.1v1a3.45,3.45,0,0,0,1.11,2.68,4.3,4.3,0,0,0,3,1h.3a4.74,4.74,0,0,0,3.24-1.25,3.94,3.94,0,0,0,1.39-3l0-.3.07-1.35v-.73a1.46,1.46,0,0,0-.56-1.32,4.32,4.32,0,0,0-2.17-.37h-.32l-.18,0h-.47l-.48,0a4.9,4.9,0,0,1-.8.07,4.39,4.39,0,0,0-3,1A3.21,3.21,0,0,0,1929.37,677.2Z" style="fill:#fff"/><path d="M1947.63,665v-.31a1.88,1.88,0,0,1,.89-1.71,6.23,6.23,0,0,0,1.62-1.22,9.26,9.26,0,0,0,.39-1.88,13.06,13.06,0,0,1,.66-2.69c.28-.73.68-1.09,1.2-1.09h.32a1.2,1.2,0,0,1,1.19.68,9.57,9.57,0,0,1,.58,2.47,6.31,6.31,0,0,0,.64,2.37,5,5,0,0,0,2.14,1.31c1.17.48,1.75.95,1.75,1.39v.18c0,.33-.55.69-1.66,1.09a3.38,3.38,0,0,0-2.17,1.79,21.14,21.14,0,0,0-1.12,7.83,7.75,7.75,0,0,0,.81,4.13,3.77,3.77,0,0,0,2.46,1.57c1.11.24,1.66.76,1.66,1.57a1.54,1.54,0,0,1-.72,1.28,3.09,3.09,0,0,1-1.85.52H1956a5.32,5.32,0,0,1-3.1-.93,5.65,5.65,0,0,1-2-2.59,23.12,23.12,0,0,1-.91-6.44,50.11,50.11,0,0,0-.53-6.1,4.31,4.31,0,0,0-.77-1.86A6.71,6.71,0,0,1,1947.63,665Z" style="fill:#fff"/><text transform="translate(1974.19 684.58)" style="font-size:44.32265090942383px;fill:#90d3f1;font-family:AveriaSansLibre-Light, Averia Sans Libre">1337</text></svg>